 <svg width="106" height="29" viewBox="0 0 106 29" fill="none" xmlns="http://www.w3.org/2000/svg">
                <g clip-path="url(#clip0_190_2500)">
                <rect width="32" height="42" rx="2" fill="#3C1F0E"/>
                </g>
                <path d="M39.5547 20.5H34.9375V19.9453C35.3438 19.9193 35.6797 19.8672 35.9453 19.7891C36.2161 19.7109 36.3516 19.6146 36.3516 19.5C36.3516 19.4531 36.3464 19.3958 36.3359 19.3281C36.3255 19.2604 36.3099 19.2005 36.2891 19.1484L35.3672 16.6641H31.4844C31.3385 17.0286 31.2188 17.3464 31.125 17.6172C31.0365 17.888 30.9557 18.138 30.8828 18.3672C30.8151 18.5911 30.7682 18.7734 30.7422 18.9141C30.7161 19.0547 30.7031 19.1693 30.7031 19.2578C30.7031 19.4661 30.8672 19.6276 31.1953 19.7422C31.5234 19.8568 31.8932 19.9245 32.3047 19.9453V20.5H28.1328V19.9453C28.2682 19.9349 28.4375 19.9062 28.6406 19.8594C28.8438 19.8073 29.0104 19.7396 29.1406 19.6562C29.349 19.5156 29.5104 19.3698 29.625 19.2188C29.7396 19.0625 29.8516 18.849 29.9609 18.5781C30.5182 17.1875 31.1328 15.625 31.8047 13.8906C32.4766 12.1562 33.0755 10.612 33.6016 9.25781H34.2266L37.9219 18.8203C38 19.0234 38.0885 19.1875 38.1875 19.3125C38.2865 19.4375 38.4245 19.5599 38.6016 19.6797C38.7214 19.7526 38.8776 19.8151 39.0703 19.8672C39.263 19.9141 39.4245 19.9401 39.5547 19.9453V20.5ZM35.0859 15.9688L33.4062 11.6719L31.7578 15.9688H35.0859ZM46.8516 15.4141C47.0859 15.6745 47.2578 15.9609 47.3672 16.2734C47.4818 16.5807 47.5391 16.9401 47.5391 17.3516C47.5391 18.3307 47.1771 19.138 46.4531 19.7734C45.7292 20.4089 44.8307 20.7266 43.7578 20.7266C43.263 20.7266 42.7682 20.651 42.2734 20.5C41.7786 20.3438 41.3516 20.1562 40.9922 19.9375L40.6562 20.5078H40.0312L39.9219 16.7109H40.5547C40.6849 17.1797 40.8359 17.6042 41.0078 17.9844C41.1849 18.3594 41.4167 18.7109 41.7031 19.0391C41.974 19.3464 42.2891 19.5911 42.6484 19.7734C43.013 19.9557 43.4349 20.0469 43.9141 20.0469C44.2734 20.0469 44.5859 20 44.8516 19.9062C45.1224 19.8125 45.3411 19.6797 45.5078 19.5078C45.6745 19.3359 45.7969 19.1354 45.875 18.9062C45.9583 18.6719 46 18.4036 46 18.1016C46 17.6589 45.875 17.2474 45.625 16.8672C45.375 16.4818 45.0026 16.1901 44.5078 15.9922C44.1693 15.8568 43.7812 15.7083 43.3438 15.5469C42.9062 15.3802 42.5286 15.224 42.2109 15.0781C41.5859 14.7969 41.099 14.4297 40.75 13.9766C40.4062 13.5182 40.2344 12.9219 40.2344 12.1875C40.2344 11.7656 40.3203 11.3724 40.4922 11.0078C40.6641 10.6432 40.9089 10.3177 41.2266 10.0312C41.5286 9.76042 41.8854 9.54948 42.2969 9.39844C42.7083 9.24219 43.138 9.16406 43.5859 9.16406C44.0964 9.16406 44.5521 9.24219 44.9531 9.39844C45.3594 9.55469 45.7292 9.73698 46.0625 9.94531L46.3828 9.41406H47.0078L47.0703 13.0938H46.4375C46.3229 12.6719 46.1927 12.2682 46.0469 11.8828C45.9062 11.4974 45.7214 11.1484 45.4922 10.8359C45.2682 10.5339 44.9948 10.2943 44.6719 10.1172C44.349 9.9349 43.9531 9.84375 43.4844 9.84375C42.9896 9.84375 42.5677 10.0026 42.2188 10.3203C41.8698 10.638 41.6953 11.026 41.6953 11.4844C41.6953 11.9635 41.8073 12.362 42.0312 12.6797C42.2552 12.9922 42.5807 13.25 43.0078 13.4531C43.388 13.6354 43.7604 13.7943 44.125 13.9297C44.4948 14.0599 44.8516 14.2005 45.1953 14.3516C45.5078 14.487 45.8073 14.6406 46.0938 14.8125C46.3854 14.9844 46.638 15.1849 46.8516 15.4141ZM55.8359 15.4141C56.0703 15.6745 56.2422 15.9609 56.3516 16.2734C56.4661 16.5807 56.5234 16.9401 56.5234 17.3516C56.5234 18.3307 56.1615 19.138 55.4375 19.7734C54.7135 20.4089 53.8151 20.7266 52.7422 20.7266C52.2474 20.7266 51.7526 20.651 51.2578 20.5C50.763 20.3438 50.3359 20.1562 49.9766 19.9375L49.6406 20.5078H49.0156L48.9062 16.7109H49.5391C49.6693 17.1797 49.8203 17.6042 49.9922 17.9844C50.1693 18.3594 50.401 18.7109 50.6875 19.0391C50.9583 19.3464 51.2734 19.5911 51.6328 19.7734C51.9974 19.9557 52.4193 20.0469 52.8984 20.0469C53.2578 20.0469 53.5703 20 53.8359 19.9062C54.1068 19.8125 54.3255 19.6797 54.4922 19.5078C54.6589 19.3359 54.7812 19.1354 54.8594 18.9062C54.9427 18.6719 54.9844 18.4036 54.9844 18.1016C54.9844 17.6589 54.8594 17.2474 54.6094 16.8672C54.3594 16.4818 53.987 16.1901 53.4922 15.9922C53.1536 15.8568 52.7656 15.7083 52.3281 15.5469C51.8906 15.3802 51.513 15.224 51.1953 15.0781C50.5703 14.7969 50.0833 14.4297 49.7344 13.9766C49.3906 13.5182 49.2188 12.9219 49.2188 12.1875C49.2188 11.7656 49.3047 11.3724 49.4766 11.0078C49.6484 10.6432 49.8932 10.3177 50.2109 10.0312C50.513 9.76042 50.8698 9.54948 51.2812 9.39844C51.6927 9.24219 52.1224 9.16406 52.5703 9.16406C53.0807 9.16406 53.5365 9.24219 53.9375 9.39844C54.3438 9.55469 54.7135 9.73698 55.0469 9.94531L55.3672 9.41406H55.9922L56.0547 13.0938H55.4219C55.3073 12.6719 55.1771 12.2682 55.0312 11.8828C54.8906 11.4974 54.7057 11.1484 54.4766 10.8359C54.2526 10.5339 53.9792 10.2943 53.6562 10.1172C53.3333 9.9349 52.9375 9.84375 52.4688 9.84375C51.974 9.84375 51.5521 10.0026 51.2031 10.3203C50.8542 10.638 50.6797 11.026 50.6797 11.4844C50.6797 11.9635 50.7917 12.362 51.0156 12.6797C51.2396 12.9922 51.5651 13.25 51.9922 13.4531C52.3724 13.6354 52.7448 13.7943 53.1094 13.9297C53.4792 14.0599 53.8359 14.2005 54.1797 14.3516C54.4922 14.487 54.7917 14.6406 55.0781 14.8125C55.3698 14.9844 55.6224 15.1849 55.8359 15.4141ZM62.7656 20.5H57.7734V19.9453C57.9141 19.9349 58.1172 19.9193 58.3828 19.8984C58.6484 19.8776 58.8359 19.8464 58.9453 19.8047C59.1172 19.737 59.2422 19.6458 59.3203 19.5312C59.3984 19.4115 59.4375 19.2474 59.4375 19.0391V11.0078C59.4375 10.8255 59.4089 10.6745 59.3516 10.5547C59.2943 10.4297 59.1589 10.3255 58.9453 10.2422C58.7891 10.1797 58.5911 10.1224 58.3516 10.0703C58.1172 10.013 57.9245 9.97917 57.7734 9.96875V9.41406H62.7656V9.96875C62.6042 9.97396 62.4115 9.99479 62.1875 10.0312C61.9635 10.0625 61.7682 10.1042 61.6016 10.1562C61.4036 10.2188 61.2708 10.3203 61.2031 10.4609C61.1354 10.6016 61.1016 10.7578 61.1016 10.9297V18.9531C61.1016 19.125 61.138 19.2786 61.2109 19.4141C61.2891 19.5443 61.4193 19.6484 61.6016 19.7266C61.7109 19.7682 61.888 19.8151 62.1328 19.8672C62.3828 19.9141 62.5938 19.9401 62.7656 19.9453V20.5ZM77.5 20.5H72.6016V19.9453C72.7786 19.9401 73.0052 19.9219 73.2812 19.8906C73.5625 19.8594 73.7552 19.8151 73.8594 19.7578C74.0208 19.6589 74.138 19.5469 74.2109 19.4219C74.2891 19.2917 74.3281 19.1302 74.3281 18.9375V10.875H74.2109L70.4297 20.3203H70.0391L66.4375 10.6797H66.3359V17.2969C66.3359 17.9375 66.375 18.4245 66.4531 18.7578C66.5365 19.0911 66.6615 19.3307 66.8281 19.4766C66.9427 19.5859 67.1797 19.6901 67.5391 19.7891C67.8984 19.888 68.1328 19.9401 68.2422 19.9453V20.5H63.7656V19.9453C64 19.9245 64.2448 19.8854 64.5 19.8281C64.7604 19.7708 64.9609 19.6849 65.1016 19.5703C65.2839 19.4245 65.4089 19.2005 65.4766 18.8984C65.5443 18.5964 65.5781 18.0911 65.5781 17.3828V11.7109C65.5781 11.3828 65.5391 11.1146 65.4609 10.9062C65.3828 10.6979 65.2708 10.5286 65.125 10.3984C64.9635 10.2578 64.7656 10.1536 64.5312 10.0859C64.2969 10.0182 64.0651 9.97917 63.8359 9.96875V9.41406H67.6172L70.7891 17.7266L73.5 10.7734C73.599 10.5182 73.6823 10.2526 73.75 9.97656C73.8229 9.69531 73.862 9.50781 73.8672 9.41406H77.4844V9.96875C77.3385 9.97396 77.151 9.9974 76.9219 10.0391C76.6979 10.0807 76.5339 10.1198 76.4297 10.1562C76.2526 10.2188 76.1328 10.3229 76.0703 10.4688C76.0078 10.6146 75.9766 10.7734 75.9766 10.9453V18.9375C75.9766 19.1198 76.0078 19.2734 76.0703 19.3984C76.1328 19.5234 76.2526 19.6328 76.4297 19.7266C76.5234 19.7786 76.6901 19.8281 76.9297 19.875C77.1693 19.9167 77.3594 19.9401 77.5 19.9453V20.5ZM83.8438 20.5H78.8516V19.9453C78.9922 19.9349 79.1953 19.9193 79.4609 19.8984C79.7266 19.8776 79.9141 19.8464 80.0234 19.8047C80.1953 19.737 80.3203 19.6458 80.3984 19.5312C80.4766 19.4115 80.5156 19.2474 80.5156 19.0391V11.0078C80.5156 10.8255 80.487 10.6745 80.4297 10.5547C80.3724 10.4297 80.237 10.3255 80.0234 10.2422C79.8672 10.1797 79.6693 10.1224 79.4297 10.0703C79.1953 10.013 79.0026 9.97917 78.8516 9.96875V9.41406H83.8438V9.96875C83.6823 9.97396 83.4896 9.99479 83.2656 10.0312C83.0417 10.0625 82.8464 10.1042 82.6797 10.1562C82.4818 10.2188 82.349 10.3203 82.2812 10.4609C82.2135 10.6016 82.1797 10.7578 82.1797 10.9297V18.9531C82.1797 19.125 82.2161 19.2786 82.2891 19.4141C82.3672 19.5443 82.4974 19.6484 82.6797 19.7266C82.7891 19.7682 82.9661 19.8151 83.2109 19.8672C83.4609 19.9141 83.6719 19.9401 83.8438 19.9453V20.5ZM98.5781 20.5H93.6797V19.9453C93.8568 19.9401 94.0833 19.9219 94.3594 19.8906C94.6406 19.8594 94.8333 19.8151 94.9375 19.7578C95.099 19.6589 95.2161 19.5469 95.2891 19.4219C95.3672 19.2917 95.4062 19.1302 95.4062 18.9375V10.875H95.2891L91.5078 20.3203H91.1172L87.5156 10.6797H87.4141V17.2969C87.4141 17.9375 87.4531 18.4245 87.5312 18.7578C87.6146 19.0911 87.7396 19.3307 87.9062 19.4766C88.0208 19.5859 88.2578 19.6901 88.6172 19.7891C88.9766 19.888 89.2109 19.9401 89.3203 19.9453V20.5H84.8438V19.9453C85.0781 19.9245 85.3229 19.8854 85.5781 19.8281C85.8385 19.7708 86.0391 19.6849 86.1797 19.5703C86.362 19.4245 86.487 19.2005 86.5547 18.8984C86.6224 18.5964 86.6562 18.0911 86.6562 17.3828V11.7109C86.6562 11.3828 86.6172 11.1146 86.5391 10.9062C86.4609 10.6979 86.349 10.5286 86.2031 10.3984C86.0417 10.2578 85.8438 10.1536 85.6094 10.0859C85.375 10.0182 85.1432 9.97917 84.9141 9.96875V9.41406H88.6953L91.8672 17.7266L94.5781 10.7734C94.6771 10.5182 94.7604 10.2526 94.8281 9.97656C94.901 9.69531 94.9401 9.50781 94.9453 9.41406H98.5625V9.96875C98.4167 9.97396 98.2292 9.9974 98 10.0391C97.776 10.0807 97.612 10.1198 97.5078 10.1562C97.3307 10.2188 97.2109 10.3229 97.1484 10.4688C97.0859 10.6146 97.0547 10.7734 97.0547 10.9453V18.9375C97.0547 19.1198 97.0859 19.2734 97.1484 19.3984C97.2109 19.5234 97.3307 19.6328 97.5078 19.7266C97.6016 19.7786 97.7682 19.8281 98.0078 19.875C98.2474 19.9167 98.4375 19.9401 98.5781 19.9453V20.5ZM104.922 20.5H99.9297V19.9453C100.07 19.9349 100.273 19.9193 100.539 19.8984C100.805 19.8776 100.992 19.8464 101.102 19.8047C101.273 19.737 101.398 19.6458 101.477 19.5312C101.555 19.4115 101.594 19.2474 101.594 19.0391V11.0078C101.594 10.8255 101.565 10.6745 101.508 10.5547C101.451 10.4297 101.315 10.3255 101.102 10.2422C100.945 10.1797 100.747 10.1224 100.508 10.0703C100.273 10.013 100.081 9.97917 99.9297 9.96875V9.41406H104.922V9.96875C104.76 9.97396 104.568 9.99479 104.344 10.0312C104.12 10.0625 103.924 10.1042 103.758 10.1562C103.56 10.2188 103.427 10.3203 103.359 10.4609C103.292 10.6016 103.258 10.7578 103.258 10.9297V18.9531C103.258 19.125 103.294 19.2786 103.367 19.4141C103.445 19.5443 103.576 19.6484 103.758 19.7266C103.867 19.7682 104.044 19.8151 104.289 19.8672C104.539 19.9141 104.75 19.9401 104.922 19.9453V20.5Z" fill="#3C1F0E"/>
                <defs>
                <clipPath id="clip0_190_2500">
                <rect width="16" height="29" fill="white"/>
                </clipPath>
                </defs>
                </svg>