<svg width="136" height="16" viewBox="0 0 136 16" fill="none" xmlns="http://www.w3.org/2000/svg">
<path d="M1.26546 13.4964L7.79485 10.9517C12.0419 9.29651 16.6993 9.00621 21.1191 10.1212V10.1212C25.5389 11.2362 30.1963 10.9459 34.4433 9.29069V9.29069C38.6904 7.63549 43.3478 7.34519 47.7676 8.46018V8.46018C52.1874 9.57518 56.8447 9.28488 61.0918 7.62967V7.62967C65.3389 5.97447 69.9963 5.68417 74.4161 6.79916V6.79916V6.79916C78.8358 7.91415 83.4932 7.62386 87.7403 5.96865V5.96865C91.9874 4.31345 96.6448 4.02315 101.065 5.13814V5.13814C105.484 6.25313 110.142 5.96283 114.389 4.30763V4.30763C118.636 2.65243 123.293 2.36213 127.713 3.47712L134.508 5.19129" stroke="#D27A24" stroke-width="5"/>
</svg>
