<svg width="298" height="30" viewBox="0 0 298 30" fill="none" xmlns="http://www.w3.org/2000/svg">
<path d="M1.32469 25.6232L18.887 21.3853C26.598 19.5245 34.575 19.0273 42.4574 19.9161L48.4953 20.5969C56.3777 21.4857 64.3547 20.9885 72.0657 19.1278L77.9723 17.7024C85.6833 15.8417 93.6604 15.3445 101.543 16.2333L107.581 16.9141C115.463 17.8029 123.44 17.3057 131.151 15.4449L137.058 14.0196C144.769 12.1589 152.746 11.6617 160.628 12.5504L163.647 12.8908L166.666 13.2313C174.548 14.12 182.525 13.6228 190.236 11.7621L196.143 10.3368C203.854 8.47603 211.831 7.97882 219.713 8.8676L225.751 9.54842C233.634 10.4372 241.611 9.93999 249.322 8.07926L255.228 6.65393C262.939 4.7932 270.916 4.29598 278.799 5.18477L296.751 7.20905" stroke="#D27A24" stroke-width="9"/>
</svg>
